<svg width="32" height="32" viewBox="0 0 32 32" fill="none" xmlns="http://www.w3.org/2000/svg">
<path d="M22.5938 19.3906C20.8376 17.8625 18.5438 16.9375 16.0313 16.9375C13.5188 16.9375 11.2251 17.8625 9.46569 19.3937C9.4171 19.4376 9.38736 19.4985 9.3827 19.5637C9.37804 19.629 9.39882 19.6935 9.44069 19.7437L10.5657 21.0844C10.6563 21.1906 10.8157 21.2031 10.9219 21.1125C12.2844 19.9125 14.0719 19.1875 16.0313 19.1875C17.9907 19.1875 19.7782 19.9125 21.1407 21.1094C21.2469 21.2 21.4063 21.1875 21.4969 21.0812L22.6219 19.7406C22.7094 19.6375 22.6969 19.4812 22.5938 19.3906ZM26.2626 15.0125C23.4907 12.7031 19.9251 11.3125 16.0313 11.3125C12.1376 11.3125 8.57194 12.7031 5.79694 15.0125C5.74617 15.0553 5.7144 15.1165 5.70854 15.1826C5.70269 15.2488 5.72323 15.3146 5.76569 15.3656L6.89069 16.7062C6.97819 16.8125 7.13756 16.825 7.24069 16.7375C9.62506 14.7562 12.6907 13.5625 16.0313 13.5625C19.3719 13.5625 22.4376 14.7562 24.8188 16.7375C24.9251 16.825 25.0813 16.8125 25.1688 16.7062L26.2938 15.3656C26.3813 15.2594 26.3688 15.1 26.2626 15.0125ZM29.9094 10.6687C26.1157 7.55625 21.2594 5.6875 15.9688 5.6875C10.7126 5.6875 5.88756 7.53125 2.10319 10.6062C2.07719 10.6271 2.05563 10.653 2.03978 10.6824C2.02394 10.7117 2.01412 10.7439 2.01092 10.7771C2.00772 10.8103 2.01119 10.8438 2.02113 10.8757C2.03107 10.9075 2.04728 10.937 2.06881 10.9625L3.19381 12.3031C3.28131 12.4063 3.43756 12.4219 3.54069 12.3375C6.93756 9.58437 11.2594 7.9375 15.9688 7.9375C20.7126 7.9375 25.0626 9.60938 28.4688 12.3969C28.5751 12.4844 28.7313 12.4688 28.8188 12.3625L29.9438 11.0219C30.0344 10.9156 30.0188 10.7562 29.9094 10.6687ZM14.0001 24.3125C14.0001 24.8429 14.2108 25.3516 14.5859 25.7267C14.9609 26.1018 15.4696 26.3125 16.0001 26.3125C16.5305 26.3125 17.0392 26.1018 17.4143 25.7267C17.7894 25.3516 18.0001 24.8429 18.0001 24.3125C18.0001 23.7821 17.7894 23.2734 17.4143 22.8983C17.0392 22.5232 16.5305 22.3125 16.0001 22.3125C15.4696 22.3125 14.9609 22.5232 14.5859 22.8983C14.2108 23.2734 14.0001 23.7821 14.0001 24.3125Z" fill="black"/>
</svg>
