<svg width="32" height="32" viewBox="0 0 32 32" fill="none" xmlns="http://www.w3.org/2000/svg">
<path fill-rule="evenodd" clip-rule="evenodd" d="M11.4173 0.250151C11.0404 0.578891 10.8983 0.984359 11.0203 1.38351C11.062 1.5199 11.1144 1.69399 11.1367 1.77047C11.1641 1.86427 11.1137 1.97264 10.9818 2.10359C10.7315 2.35216 10.7272 2.61942 10.9701 2.82241C11.576 3.32868 12.6015 2.39305 12.3482 1.56511C12.3068 1.4296 12.2546 1.25625 12.2323 1.17978C12.2049 1.08598 12.2553 0.977605 12.3872 0.846659C13.0152 0.223074 12.0965 -0.341979 11.4173 0.250151ZM6.62724 1.25069C6.25032 1.57943 6.10827 1.9849 6.23027 2.38405C6.27195 2.52043 6.32435 2.69453 6.34665 2.77101C6.37404 2.86481 6.32367 2.97318 6.19172 3.10412C5.94144 3.35269 5.9371 3.61996 6.18005 3.82295C6.78591 4.32922 7.81144 3.39359 7.55816 2.56565C7.5167 2.43014 7.46453 2.25679 7.44223 2.18031C7.41483 2.08651 7.46521 1.97814 7.59716 1.8472C8.22511 1.22361 7.30638 0.658558 6.62724 1.25069ZM15.6086 1.25069C15.2317 1.57943 15.0896 1.9849 15.2116 2.38405C15.2533 2.52043 15.3057 2.69453 15.328 2.77101C15.3554 2.86481 15.3051 2.97318 15.1731 3.10412C14.9228 3.35269 14.9185 3.61996 15.1614 3.82295C15.7673 4.32922 16.7928 3.39359 16.5395 2.56565C16.4981 2.43014 16.4459 2.25679 16.4236 2.18031C16.3962 2.08651 16.4466 1.97814 16.5785 1.8472C17.2065 1.22361 16.2878 0.658558 15.6086 1.25069ZM6.89706 5.1147C6.38879 5.27773 5.78292 5.7683 5.58061 6.18053L5.43496 6.47737L5.00124 6.47756C4.48204 6.47787 4.20003 6.65403 4.20003 6.97808C4.20003 7.30213 4.48204 7.47829 5.00124 7.4786L5.43496 7.47879L5.58061 7.77563C6.17211 8.98097 8.13746 9.36305 9.35242 8.5089L9.58504 8.34538L9.87371 8.53923C10.7373 9.11898 12.0322 9.11954 12.8946 8.54048L13.1814 8.34794L13.4682 8.54048C14.6793 9.35367 16.6463 8.94814 17.1828 7.7747L17.3182 7.47835H21.6524H25.7473C25.902 7.47835 26.0517 7.42401 26.1704 7.32483C26.4134 7.12178 26.4134 6.83438 26.1704 6.63133C26.0517 6.53215 25.902 6.47781 25.7473 6.4778L21.661 6.47756L17.3353 6.47737L17.1896 6.18053C16.6102 4.99964 14.679 4.60274 13.4682 5.41568L13.1814 5.60822L12.8946 5.41568C12.0331 4.83718 10.7372 4.83718 9.87566 5.41568L9.58885 5.60822L9.30205 5.41568C8.65022 4.978 7.69573 4.85857 6.89706 5.1147ZM8.29007 6.10705C9.40616 6.55848 9.03118 7.94016 7.79258 7.94016C6.57133 7.94016 6.17795 6.59225 7.2617 6.12099C7.66908 5.94384 7.87955 5.94102 8.29007 6.10705ZM11.8826 6.10705C12.9915 6.5556 12.613 7.94016 11.3813 7.94016C10.1636 7.94016 9.77282 6.59125 10.8543 6.12099C11.2616 5.94384 11.4721 5.94102 11.8826 6.10705ZM15.4752 6.10705C16.5841 6.5556 16.2055 7.94016 14.9739 7.94016C13.7421 7.94016 13.3673 6.56623 14.4743 6.10843C14.8713 5.94421 15.0719 5.94396 15.4752 6.10705ZM3.98971 10.1418C2.76323 10.6525 2.65321 12.0817 3.79115 12.721L4.1626 12.9297L4.21208 13.8153C4.35346 16.344 5.69947 18.5631 8.0707 20.1768L8.38625 20.3915L6.40398 24.9252C3.97205 30.4876 4.01389 30.3824 4.08132 30.7582C4.25331 31.7163 5.53496 32.2649 6.58249 31.8287C7.16193 31.5875 7.30324 31.3816 8.09592 29.625L8.8199 28.0206L14.0781 28.0046L19.3364 27.9885L19.2863 28.1296C19.2587 28.2072 19.2167 28.497 19.193 28.7735C18.9571 31.5223 22.9037 33.0647 25.2656 31.1468C27.3745 29.4342 26.2543 26.4347 23.3536 26.0268L22.799 25.9488L21.5874 23.1702L20.3758 20.3915L20.6892 20.179C22.1301 19.2018 23.4893 17.6106 23.9934 16.3112L24.1208 15.9829H25.7586C27.7226 15.9829 28.0047 15.9252 28.6417 15.3929C29.59 14.6007 29.59 13.363 28.6417 12.5708C28.0893 12.1092 27.6356 11.9808 26.5571 11.9808H25.7179V11.4913C25.7179 10.8801 25.4756 10.4983 24.8985 10.2002C24.6577 10.0758 24.3908 10.0107 24.1198 10.0103L14.4572 9.99464L4.38227 9.97838L3.98971 10.1418ZM24.339 11.163C24.6157 11.3942 24.6157 11.5668 24.339 11.798C24.1977 11.9161 24.0194 11.9808 23.8352 11.9808H14.3789H4.92265C4.73847 11.9808 4.56014 11.9161 4.4188 11.798C4.29845 11.6974 4.20003 11.5546 4.20003 11.4805C4.20003 11.4064 4.29845 11.2636 4.4188 11.163C4.56014 11.0449 4.73847 10.9802 4.92265 10.9802H14.3789H23.8352C24.0194 10.9802 24.1977 11.0449 24.339 11.163ZM23.3336 13.7059C22.9035 19.9973 14.5456 23.1724 8.70696 19.2625C6.71923 17.9314 5.58099 15.9986 5.42291 13.686L5.37471 12.9813H14.3789H23.3831L23.3336 13.7059ZM27.4503 13.1108C28.2842 13.4481 28.3342 14.4252 27.5381 14.826C27.1687 15.012 24.3548 15.0591 24.4437 14.8778C24.4746 14.815 24.5175 14.3625 24.5391 13.8724L24.5785 12.9813H25.8543C26.9917 12.9813 27.1649 12.9954 27.4503 13.1108ZM10.4034 21.5343C10.3601 21.628 9.42098 23.7168 8.31627 26.1759C7.21163 28.635 6.2858 30.6937 6.25893 30.7507C6.09936 31.0895 5.39133 30.9758 5.33744 30.6028C5.32457 30.5133 6.20564 28.3997 7.38557 25.6898L9.45638 20.9338L9.96914 21.1488C10.4693 21.3585 10.48 21.3679 10.4034 21.5343ZM20.4361 23.5429C21.0582 24.9667 21.5581 26.1345 21.5469 26.1381C21.5357 26.1417 21.32 26.2354 21.0677 26.3462L20.6086 26.5478L19.5792 24.2514C19.013 22.9883 18.4878 21.8219 18.4122 21.6595L18.2745 21.364L18.7779 21.1516C19.0548 21.0348 19.2866 20.9426 19.2932 20.9468C19.2997 20.951 19.814 22.1192 20.4361 23.5429ZM12.4062 21.8444C13.2597 22.0017 15.4351 21.9978 16.3837 21.8373C16.7659 21.7725 17.0914 21.7303 17.1072 21.7435C17.1228 21.7566 17.4387 22.4426 17.8092 23.2681C18.1797 24.0935 18.5061 24.8182 18.5345 24.8783C18.5834 24.9818 18.3557 24.9878 14.3789 24.9878C10.402 24.9878 10.1744 24.9818 10.2235 24.8783C10.252 24.8182 10.5812 24.0865 10.9551 23.2525C11.3344 22.4061 11.6753 21.736 11.7265 21.736C11.7769 21.736 12.0828 21.7848 12.4062 21.8444ZM19.2533 26.4876C19.3716 26.745 19.4684 26.963 19.4684 26.9722C19.4684 26.9813 17.1781 26.9888 14.3789 26.9888C11.5797 26.9888 9.28947 26.9818 9.28955 26.9732C9.28955 26.9594 9.3977 26.7192 9.65569 26.1598L9.73525 25.9874L14.3867 26.0034L19.0381 26.0196L19.2533 26.4876ZM23.6985 27.1705C25.1989 27.725 25.5943 29.3198 24.4816 30.3284C23.0299 31.6443 20.4113 30.7831 20.4113 28.9899C20.4113 27.565 22.1549 26.6 23.6985 27.1705ZM22.3465 28.6432C22.2307 28.7399 22.1628 28.8681 22.1628 28.9899C22.1628 29.1117 22.2307 29.2399 22.3465 29.3367C22.4623 29.4335 22.6157 29.4902 22.7615 29.4902C22.9073 29.4902 23.0608 29.4335 23.1766 29.3367C23.2924 29.2399 23.3603 29.1117 23.3603 28.9899C23.3603 28.8681 23.2924 28.7399 23.1766 28.6432C23.0608 28.5464 22.9073 28.4896 22.7615 28.4896C22.6157 28.4896 22.4623 28.5464 22.3465 28.6432Z" fill="black"/>
</svg>
