<svg width="32" height="32" viewBox="0 0 32 32" fill="none" xmlns="http://www.w3.org/2000/svg">
<path d="M21.0667 4C22.0325 4.00016 22.9707 4.32299 23.7321 4.91725C24.4935 5.5115 25.0346 6.3431 25.2693 7.28L25.7827 9.33333H27C27.2417 9.33334 27.4751 9.42086 27.6572 9.57969C27.8394 9.73852 27.9578 9.95793 27.9907 10.1973L28 10.3333C28 10.575 27.9125 10.8085 27.7536 10.9906C27.5948 11.1727 27.3754 11.2911 27.136 11.324L27 11.3333H26.2853L26.5627 12.4347C27.0034 12.7022 27.3677 13.0788 27.6204 13.5282C27.8731 13.9775 28.0057 14.4845 28.0053 15V26.3293C28.0053 26.9482 27.7595 27.5417 27.3219 27.9792C26.8843 28.4168 26.2908 28.6627 25.672 28.6627H23.6667C23.0478 28.6627 22.4543 28.4168 22.0168 27.9792C21.5792 27.5417 21.3333 26.9482 21.3333 26.3293L21.332 24.6667H10.672V26.3293C10.672 26.9482 10.4262 27.5417 9.98858 27.9792C9.551 28.4168 8.95751 28.6627 8.33867 28.6627H6.33333C5.71449 28.6627 5.121 28.4168 4.68342 27.9792C4.24583 27.5417 4 26.9482 4 26.3293V15C4 13.9133 4.57733 12.9613 5.44267 12.436L5.71867 11.3333H5C4.75835 11.3333 4.52488 11.2458 4.34276 11.087C4.16064 10.9281 4.0422 10.7087 4.00933 10.4693L4 10.3333C4.00001 10.0917 4.08752 9.85821 4.24636 9.67609C4.40519 9.49397 4.6246 9.37553 4.864 9.34267L5 9.33333H6.21733L6.732 7.28267C6.96633 6.34505 7.50737 5.51268 8.2691 4.91789C9.03084 4.32309 9.96955 4.00001 10.936 4H21.0653H21.0667ZM8.67067 24.6667H5.99867L6 26.3293C6 26.5133 6.14933 26.6627 6.33333 26.6627H8.33867C8.42707 26.6627 8.51186 26.6275 8.57437 26.565C8.63688 26.5025 8.672 26.4177 8.672 26.3293V24.6667H8.67067ZM26.004 24.6667H23.3307L23.332 26.3293C23.332 26.5133 23.4813 26.6627 23.6653 26.6627H25.6707C25.7591 26.6627 25.8439 26.6275 25.9064 26.565C25.9689 26.5025 26.004 26.4177 26.004 26.3293V24.6667ZM25.004 14H7C6.73478 14 6.48043 14.1054 6.29289 14.2929C6.10536 14.4804 6 14.7348 6 15V22.6667H26.0053V15C26.0053 14.7348 25.9 14.4804 25.7124 14.2929C25.5249 14.1054 25.2705 14 25.0053 14H25.004ZM13.6667 18.6667H18.336C18.5893 18.6671 18.8329 18.7636 19.0178 18.9366C19.2027 19.1097 19.315 19.3465 19.3321 19.5992C19.3492 19.8518 19.2698 20.1016 19.1099 20.298C18.95 20.4944 18.7216 20.6228 18.4707 20.6573L18.336 20.6667H13.6667C13.4133 20.6666 13.1694 20.5703 12.9843 20.3974C12.7991 20.2244 12.6866 19.9876 12.6693 19.7348C12.652 19.4821 12.7314 19.2321 12.8912 19.0356C13.0511 18.8391 13.2797 18.7105 13.5307 18.676L13.6667 18.6667H18.336H13.6667ZM22.6667 16C23.0203 16 23.3594 16.1405 23.6095 16.3905C23.8595 16.6406 24 16.9797 24 17.3333C24 17.687 23.8595 18.0261 23.6095 18.2761C23.3594 18.5262 23.0203 18.6667 22.6667 18.6667C22.313 18.6667 21.9739 18.5262 21.7239 18.2761C21.4738 18.0261 21.3333 17.687 21.3333 17.3333C21.3333 16.9797 21.4738 16.6406 21.7239 16.3905C21.9739 16.1405 22.313 16 22.6667 16ZM9.33333 16C9.68696 16 10.0261 16.1405 10.2761 16.3905C10.5262 16.6406 10.6667 16.9797 10.6667 17.3333C10.6667 17.687 10.5262 18.0261 10.2761 18.2761C10.0261 18.5262 9.68696 18.6667 9.33333 18.6667C8.97971 18.6667 8.64057 18.5262 8.39052 18.2761C8.14048 18.0261 8 17.687 8 17.3333C8 16.9797 8.14048 16.6406 8.39052 16.3905C8.64057 16.1405 8.97971 16 9.33333 16ZM21.0667 6H10.9347C10.4142 5.99996 9.90859 6.17395 9.49835 6.49431C9.08812 6.81467 8.79678 7.26301 8.67067 7.768L7.61467 12H24.3907L23.3293 7.76533C23.2027 7.26083 22.9112 6.8131 22.501 6.49326C22.0908 6.17342 21.5855 5.99981 21.0653 6H21.0667Z" fill="black"/>
</svg>
