<svg width="36" height="36" viewBox="0 0 36 36" fill="none" xmlns="http://www.w3.org/2000/svg">
<path d="M27.546 26.0459L18 35.5919L8.45401 26.0459C6.56601 24.1579 5.28028 21.7524 4.75939 19.1337C4.23851 16.5149 4.50586 13.8005 5.52765 11.3337C6.54944 8.86694 8.27976 6.75854 10.4998 5.27515C12.7199 3.79176 15.33 3 18 3C20.67 3 23.2801 3.79176 25.5002 5.27515C27.7202 6.75854 29.4506 8.86694 30.4724 11.3337C31.4942 13.8005 31.7615 16.5149 31.2406 19.1337C30.7197 21.7524 29.434 24.1579 27.546 26.0459ZM18 22.4999C19.5913 22.4999 21.1174 21.8677 22.2426 20.7425C23.3679 19.6173 24 18.0912 24 16.4999C24 14.9086 23.3679 13.3825 22.2426 12.2572C21.1174 11.132 19.5913 10.4999 18 10.4999C16.4087 10.4999 14.8826 11.132 13.7574 12.2572C12.6321 13.3825 12 14.9086 12 16.4999C12 18.0912 12.6321 19.6173 13.7574 20.7425C14.8826 21.8677 16.4087 22.4999 18 22.4999ZM18 19.4999C17.2044 19.4999 16.4413 19.1838 15.8787 18.6212C15.3161 18.0586 15 17.2955 15 16.4999C15 15.7042 15.3161 14.9412 15.8787 14.3786C16.4413 13.816 17.2044 13.4999 18 13.4999C18.7957 13.4999 19.5587 13.816 20.1213 14.3786C20.6839 14.9412 21 15.7042 21 16.4999C21 17.2955 20.6839 18.0586 20.1213 18.6212C19.5587 19.1838 18.7957 19.4999 18 19.4999Z" fill="black"/>
</svg>
