<svg width="32" height="32" viewBox="0 0 32 32" fill="none" xmlns="http://www.w3.org/2000/svg">
<path fill-rule="evenodd" clip-rule="evenodd" d="M0.327457 8.08584C0.142011 8.20432 0.000587386 8.43683 0.000361398 8.62347C0.000225804 8.73906 0.893243 14.1081 0.972113 14.4657C0.98861 14.5405 0.967955 14.5709 0.886237 14.5918C0.738757 14.6294 0.512588 14.9027 0.448407 15.1207C0.331797 15.5167 0.542418 15.9854 0.905762 16.1386C0.998011 16.1774 1.03498 16.2201 1.0202 16.2704C0.969356 16.4437 -0.000135579 22.2449 1.42217e-08 22.3748C0.000768376 23.0125 0.950283 23.2021 1.22816 22.6201C1.28796 22.4949 2.35046 16.452 2.35046 16.2372C2.35046 16.1961 2.77238 16.1857 4.0791 16.1948L5.80768 16.2069L6.33677 19.3345C6.67543 21.3365 6.8951 22.5195 6.94712 22.6217C7.22884 23.1746 8.04271 23.0621 8.16226 22.4539C8.18219 22.3525 7.27711 16.8073 7.15575 16.2874C7.13198 16.1854 7.13794 16.1839 7.58183 16.1839C7.97428 16.1839 8.05116 16.1706 8.18142 16.0804C8.69293 15.7261 8.66978 14.9194 8.13998 14.635L7.94075 14.5281H5.12303C3.16859 14.5281 2.30527 14.5131 2.30527 14.4793C2.30527 14.2698 1.28664 8.49082 1.22802 8.36779C1.06947 8.03502 0.624813 7.89584 0.327457 8.08584ZM31.0963 8.04849C30.9313 8.11546 30.7888 8.26628 30.737 8.42905C30.6952 8.56018 29.6951 14.3675 29.6951 14.479C29.6951 14.5132 28.842 14.5281 26.8773 14.5281H24.0596L23.8604 14.635C23.3306 14.9194 23.3074 15.7261 23.8189 16.0804C23.9492 16.1706 24.0261 16.1839 24.4185 16.1839C24.8624 16.1839 24.8684 16.1854 24.8446 16.2874C24.7233 16.8073 23.8182 22.3525 23.8381 22.4539C23.9577 23.0621 24.7715 23.1746 25.0532 22.6217C25.1053 22.5195 25.3249 21.3365 25.6636 19.3345L26.1927 16.2069L27.9213 16.1948C29.228 16.1857 29.6499 16.1961 29.6499 16.2372C29.6499 16.452 30.7124 22.4949 30.7722 22.6201C31.0569 23.2164 32.0061 23.0087 31.9982 22.3518C31.9971 22.2607 31.7663 20.8408 31.4853 19.1965L30.9745 16.2069L31.119 16.1288C31.6244 15.8558 31.7385 15.2182 31.3603 14.7799C31.2841 14.6915 31.1733 14.6069 31.1141 14.5918C31.0324 14.5709 31.0118 14.5405 31.0282 14.4657C31.1071 14.1081 32.0001 8.73906 32 8.62347C31.9995 8.19706 31.5052 7.88259 31.0963 8.04849ZM8.78753 10.7972C8.48714 10.9836 8.44615 11.5994 8.71584 11.8741C8.85944 12.0204 8.86405 12.0215 9.37948 12.0368L9.89849 12.0523L9.89948 17.2572C9.90057 23.0714 9.88289 22.7474 10.2091 22.9191C10.4011 23.0201 10.9501 23.0162 11.1224 22.9126C11.4047 22.7429 11.39 23.0505 11.39 17.2923V12.0444H16.0454H20.7007V17.29C20.7007 23.0092 20.6858 22.68 20.9545 22.895C21.1345 23.0391 21.7098 23.0337 21.9257 22.886C22.1973 22.7001 22.1869 22.922 22.1897 17.2574L22.1923 12.0527L22.6661 12.0371C23.1308 12.0216 23.1426 12.0186 23.2853 11.8733C23.5645 11.589 23.5075 10.9484 23.1881 10.7803C22.9596 10.66 8.98215 10.6765 8.78753 10.7972Z" fill="black"/>
</svg>
