<svg width="32" height="32" viewBox="0 0 32 32" fill="none" xmlns="http://www.w3.org/2000/svg">
<path fill-rule="evenodd" clip-rule="evenodd" d="M12.1143 1.13783C11.3313 1.40793 10.6864 2.01992 10.415 2.75054C9.96406 3.96435 8.83016 10.1122 8.29424 14.2491L8.14705 15.3857L6.2619 17.2851L4.37675 19.1845H3.38238H2.38801L2.194 19.359L2 19.5336V24.5685V29.6035L2.194 29.7781L2.38801 29.9526H3.24005H4.0921L5.24389 30.5605C7.39254 31.6944 7.0116 31.6398 12.6031 31.6163L17.0284 31.5978L17.3003 31.4629C18.1725 31.03 18.665 30.0033 18.4048 29.16L18.3172 28.8758L23.1377 28.8744C26.1018 28.8735 28.0564 28.8501 28.2131 28.8137C29.1449 28.5972 29.8101 27.8722 29.9461 26.9249C30.0115 26.4689 30.0197 23.5191 29.9578 22.7039C29.9026 21.9769 29.6213 21.7027 29.1392 21.9055C28.7541 22.0676 28.7602 22.025 28.7588 24.537C28.7573 27.0818 28.7474 27.1508 28.3364 27.446L28.1364 27.5896L23.989 27.6058C21.344 27.6161 19.8543 27.601 19.8768 27.5644C20.0244 27.3239 20.0272 26.5589 19.8819 26.1806C19.8553 26.1113 19.9289 26.0532 20.1712 25.9521C21.8389 25.2559 21.8149 22.8504 20.1343 22.2492C19.9643 22.1884 19.8593 22.1178 19.8755 22.0752C20.168 21.3075 19.914 20.328 19.2886 19.8118C18.7244 19.3462 18.9185 19.3639 14.3844 19.3639C12.1632 19.3639 10.3458 19.3461 10.3458 19.3242C10.3458 19.3023 10.6355 18.9858 10.9896 18.6209C11.7444 17.8429 11.9012 17.5341 11.9033 16.8215C11.9068 15.6035 10.9499 14.6379 9.73923 14.6379C9.50917 14.6379 9.4493 14.619 9.47395 14.5543C9.49147 14.5083 9.5245 14.2799 9.54731 14.0468C9.57012 13.8137 9.61877 13.5843 9.65548 13.5371C9.69213 13.4899 10.9019 12.9376 12.3438 12.3098L14.9654 11.1682H18.9217H22.8778L25.4478 12.3305L28.0176 13.4928L28.0885 14.0205C28.1497 14.476 28.317 15.9495 28.44 17.1175C28.5363 18.0315 29.6511 18.0786 29.6511 17.1687C29.6511 15.2331 27.8615 4.53267 27.2472 2.79553C27.0102 2.12551 26.5107 1.59368 25.7901 1.2442L25.3446 1.02818L18.9293 1.01412L12.514 1L12.1143 1.13783ZM25.3517 2.38622C25.9318 2.69443 26.0641 2.94024 26.3551 4.25102C26.8831 6.62911 27.874 11.9756 27.7975 12.0335C27.7879 12.0408 26.7509 11.5732 25.4931 10.9943L23.2061 9.94181L18.9887 9.92703L14.7712 9.91226L12.31 10.9879C10.9563 11.5795 9.84295 12.0572 9.83582 12.0496C9.77392 11.983 10.6329 7.27795 11.1272 4.9765C11.5905 2.8191 11.7126 2.58196 12.504 2.30474C12.7928 2.20358 13.1736 2.19802 18.9293 2.21094L25.0476 2.22464L25.3517 2.38622ZM15.9444 3.84118C15.2812 4.024 14.7528 4.45855 14.4574 5.06426C14.2024 5.58711 14.2179 6.49343 14.4912 7.05313C14.7176 7.51658 15.0882 7.87887 15.5731 8.11063L15.8998 8.26677H18.9293H21.9587L22.3138 8.09142C23.1421 7.68253 23.5625 6.99636 23.5625 6.05331C23.5625 5.27932 23.3918 4.86559 22.8725 4.38144C22.2192 3.77226 22.28 3.78201 19.0481 3.76765C16.7763 3.75754 16.1981 3.77124 15.9444 3.84118ZM21.7704 5.08801C22.517 5.4022 22.5827 6.49355 21.8815 6.93271C21.6621 7.07007 21.6567 7.07036 19.0652 7.08819C17.3788 7.0998 16.3872 7.08394 16.2365 7.04309C15.3632 6.80625 15.1827 5.61972 15.9495 5.1568L16.1968 5.00755L18.8866 5.00695C21.025 5.00653 21.6162 5.02316 21.7704 5.08801ZM10.1904 15.9772C10.5531 16.1298 10.7823 16.6418 10.6769 17.0643C10.6548 17.1531 10.3228 17.5527 9.93371 17.9591C9.15526 18.7721 9.07014 18.9302 9.11029 19.489C9.14077 19.9134 9.35015 20.2185 9.75301 20.4258L10.0146 20.5604H14.0729C18.5463 20.5604 18.4306 20.5511 18.6604 20.9307C18.8982 21.3234 18.7548 21.8215 18.3482 22.0159C18.1607 22.1055 17.8001 22.1158 14.8602 22.1158H11.5814L11.3794 22.3192C11.1199 22.5806 11.1431 23.023 11.429 23.2658C11.4377 23.2731 13.2892 23.2933 15.5434 23.3106C19.4763 23.3409 19.6499 23.3469 19.8342 23.4592C20.1888 23.6753 20.3039 24.1376 20.0906 24.4899C19.8721 24.8508 20.0577 24.8351 15.6127 24.8677L11.5241 24.8976L11.3507 25.093C11.0809 25.3972 11.14 25.7905 11.4878 26.0041C11.6759 26.1196 11.7897 26.1235 14.9494 26.1246C18.5189 26.1258 18.4014 26.1144 18.6506 26.4838C18.8582 26.7914 18.8073 27.1581 18.5202 27.4231L18.3073 27.6195L15.084 27.6199C11.2633 27.6202 11.2734 27.6187 11.1945 28.2114C11.1655 28.4292 11.1834 28.475 11.3718 28.6647L11.5814 28.8758H14.1328H16.6842L16.8852 29.0122C17.2568 29.2644 17.3468 29.7099 17.1005 30.0784C16.8556 30.4448 16.9421 30.4389 12.1887 30.4186L7.88069 30.4002L7.43519 30.2472C7.19016 30.163 6.44171 29.8018 5.77196 29.4445L4.55424 28.7949L3.88598 28.7703L3.21772 28.7459V24.5634V20.3809H4.06228H4.90684L7.04718 18.2303C8.22439 17.0475 9.26771 16.0381 9.36572 15.9873C9.58734 15.8724 9.93145 15.8682 10.1904 15.9772ZM28.9633 19.2972C28.3232 19.6903 28.8049 20.6485 29.4963 20.3575C29.9414 20.1702 29.9848 19.5539 29.5708 19.2997C29.3361 19.1556 29.1949 19.155 28.9633 19.2972Z" fill="black"/>
</svg>
