<svg width="25" height="25" viewBox="0 0 25 25" fill="none" xmlns="http://www.w3.org/2000/svg">
<path d="M17.0667 0C18.0325 0.000155373 18.9707 0.322993 19.7321 0.917247C20.4935 1.5115 21.0346 2.3431 21.2693 3.28L21.7827 5.33333H23C23.2417 5.33334 23.4751 5.42086 23.6572 5.57969C23.8394 5.73852 23.9578 5.95793 23.9907 6.19733L24 6.33333C24 6.57498 23.9125 6.80846 23.7536 6.99057C23.5948 7.17269 23.3754 7.29114 23.136 7.324L23 7.33333H22.2853L22.5627 8.43467C23.0034 8.70218 23.3677 9.0788 23.6204 9.52817C23.8731 9.97753 24.0057 10.4845 24.0053 11V22.3293C24.0053 22.9482 23.7595 23.5417 23.3219 23.9792C22.8843 24.4168 22.2908 24.6627 21.672 24.6627H19.6667C19.0478 24.6627 18.4543 24.4168 18.0168 23.9792C17.5792 23.5417 17.3333 22.9482 17.3333 22.3293L17.332 20.6667H6.672V22.3293C6.672 22.9482 6.42617 23.5417 5.98858 23.9792C5.551 24.4168 4.95751 24.6627 4.33867 24.6627H2.33333C1.71449 24.6627 1.121 24.4168 0.683418 23.9792C0.245833 23.5417 0 22.9482 0 22.3293V11C0 9.91333 0.577333 8.96133 1.44267 8.436L1.71867 7.33333H1C0.75835 7.33332 0.524877 7.24581 0.342759 7.08698C0.160641 6.92815 0.0421977 6.70874 0.00933329 6.46933L0 6.33333C1.01905e-05 6.09168 0.0875235 5.85821 0.246356 5.67609C0.405189 5.49397 0.624595 5.37553 0.864 5.34267L1 5.33333H2.21733L2.732 3.28267C2.96633 2.34505 3.50737 1.51268 4.2691 0.917888C5.03084 0.323091 5.96955 6.932e-06 6.936 0H17.0653H17.0667ZM4.67067 20.6667H1.99867L2 22.3293C2 22.5133 2.14933 22.6627 2.33333 22.6627H4.33867C4.42707 22.6627 4.51186 22.6275 4.57437 22.565C4.63688 22.5025 4.672 22.4177 4.672 22.3293V20.6667H4.67067ZM22.004 20.6667H19.3307L19.332 22.3293C19.332 22.5133 19.4813 22.6627 19.6653 22.6627H21.6707C21.7591 22.6627 21.8439 22.6275 21.9064 22.565C21.9689 22.5025 22.004 22.4177 22.004 22.3293V20.6667ZM21.004 10H3C2.73478 10 2.48043 10.1054 2.29289 10.2929C2.10536 10.4804 2 10.7348 2 11V18.6667H22.0053V11C22.0053 10.7348 21.9 10.4804 21.7124 10.2929C21.5249 10.1054 21.2705 10 21.0053 10H21.004ZM9.66667 14.6667H14.336C14.5893 14.6671 14.8329 14.7636 15.0178 14.9366C15.2027 15.1097 15.315 15.3465 15.3321 15.5992C15.3492 15.8518 15.2698 16.1016 15.1099 16.298C14.95 16.4944 14.7216 16.6228 14.4707 16.6573L14.336 16.6667H9.66667C9.4133 16.6666 9.16941 16.5703 8.98428 16.3974C8.79914 16.2244 8.68657 15.9876 8.6693 15.7348C8.65203 15.4821 8.73135 15.2321 8.89124 15.0356C9.05113 14.8391 9.27967 14.7105 9.53067 14.676L9.66667 14.6667H14.336H9.66667ZM18.6667 12C19.0203 12 19.3594 12.1405 19.6095 12.3905C19.8595 12.6406 20 12.9797 20 13.3333C20 13.687 19.8595 14.0261 19.6095 14.2761C19.3594 14.5262 19.0203 14.6667 18.6667 14.6667C18.313 14.6667 17.9739 14.5262 17.7239 14.2761C17.4738 14.0261 17.3333 13.687 17.3333 13.3333C17.3333 12.9797 17.4738 12.6406 17.7239 12.3905C17.9739 12.1405 18.313 12 18.6667 12ZM5.33333 12C5.68696 12 6.02609 12.1405 6.27614 12.3905C6.52619 12.6406 6.66667 12.9797 6.66667 13.3333C6.66667 13.687 6.52619 14.0261 6.27614 14.2761C6.02609 14.5262 5.68696 14.6667 5.33333 14.6667C4.97971 14.6667 4.64057 14.5262 4.39052 14.2761C4.14048 14.0261 4 13.687 4 13.3333C4 12.9797 4.14048 12.6406 4.39052 12.3905C4.64057 12.1405 4.97971 12 5.33333 12ZM17.0667 2H6.93467C6.41416 1.99996 5.90859 2.17395 5.49835 2.49431C5.08812 2.81467 4.79678 3.26301 4.67067 3.768L3.61467 8H20.3907L19.3293 3.76533C19.2027 3.26083 18.9112 2.8131 18.501 2.49326C18.0908 2.17342 17.5855 1.99981 17.0653 2H17.0667Z" fill="black"/>
</svg>
